<?xml version="1.0" encoding="UTF-8" standalone="no"?>
<svg
   xmlns:dc="http://purl.org/dc/elements/1.1/"
   xmlns:cc="http://creativecommons.org/ns#"
   xmlns:rdf="http://www.w3.org/1999/02/22-rdf-syntax-ns#"
   xmlns:svg="http://www.w3.org/2000/svg"
   xmlns="http://www.w3.org/2000/svg"
   id="svg8"
   version="1.1"
   viewBox="0 0 637.5622 109.49479"
   height="109.4948mm"
   width="637.56219mm">
  <defs
     id="defs2" />
  <metadata
     id="metadata5">
    <rdf:RDF>
      <cc:Work
         rdf:about="">
        <dc:format>image/svg+xml</dc:format>
        <dc:type
           rdf:resource="http://purl.org/dc/dcmitype/StillImage" />
        <dc:title></dc:title>
      </cc:Work>
    </rdf:RDF>
  </metadata>
  <g
     transform="translate(729.66604,339.43418)"
     id="layer1">
    <path
       id="path839-3"
       d="m -95.100195,1.9328625 4.4e-4,-41.6693105 c -127.405365,-114.606382 -183.728255,1.741776 -319.045585,6.464257 -135.31732,-4.722485 -191.11105,-121.070639 -318.51642,-6.464257 l -4.3e-4,41.6693035 318.78143,2.22e-4 z"
       style="fill:#624eff;fill-opacity:1;stroke:none;stroke-width:0.34070173px;stroke-linecap:butt;stroke-linejoin:miter;stroke-opacity:1" />
    <path
       id="path839-3-6"
       d="m -376.89937,377.01115 318.781003,-1.3e-4 v -25.13 c -127.405353,-69.11703 -183.463673,2.37335 -318.781003,5.22139"
       style="fill:none;fill-opacity:1;stroke:#000000;stroke-width:0.26458332px;stroke-linecap:butt;stroke-linejoin:miter;stroke-opacity:1" />
    <path
       id="path839-3-9"
       d="m -13.301553,-15.572139 v -41.669312 c -127.405227,-114.606379 -183.728117,1.741777 -319.045457,6.464256 -135.31732,-4.722485 -191.11105,-121.070635 -318.51642,-6.464256 v 41.669304 l 318.78101,2.22e-4 z"
       style="fill:#624eff;fill-opacity:0.28395063;stroke:none;stroke-width:0.34070173px;stroke-linecap:butt;stroke-linejoin:miter;stroke-opacity:1" />
    <path
       id="path839-3-9-1"
       d="m -178.93115,-15.57213 v -41.669311 c -127.40539,-114.606389 -183.72828,1.74178 -319.04562,6.46426 -135.31732,-4.72249 -191.11105,-121.070649 -318.51642,-6.46426 v 41.669301 l 318.78101,2.2e-4 z"
       style="fill:#624eff;fill-opacity:0.28395063;stroke:none;stroke-width:0.34070173px;stroke-linecap:butt;stroke-linejoin:miter;stroke-opacity:1" />
    <path
       id="path839-3-7"
       d="M -80.610362,263.97462 V 222.30531 C -208.01572,107.69893 -264.33861,224.04709 -399.65595,228.76957 -534.97326,224.04708 -590.767,107.69893 -718.17237,222.30531 v 41.66931 l 318.78101,2.2e-4 z"
       style="fill:#624eff;fill-opacity:1;stroke:none;stroke-width:0.34070173px;stroke-linecap:butt;stroke-linejoin:miter;stroke-opacity:1" />
    <path
       id="path839-3-9-7"
       d="M 1.187858,246.46962 V 204.80031 C -126.21738,90.193928 -182.54027,206.54209 -317.85763,211.26457 -453.17494,206.54208 -508.96866,90.193928 -636.37404,204.80031 v 41.6693 l 318.78102,2.2e-4 z"
       style="fill:#624eff;fill-opacity:0.28395063;stroke:none;stroke-width:0.34070173px;stroke-linecap:butt;stroke-linejoin:miter;stroke-opacity:1" />
    <path
       id="path839-3-9-1-5"
       d="M -164.44176,246.46963 V 204.80032 C -291.84715,90.193928 -348.17004,206.5421 -483.48738,211.26458 -618.8047,206.54209 -674.59843,90.193928 -802.0038,204.80032 v 41.6693 l 318.78101,2.2e-4 z"
       style="fill:#624eff;fill-opacity:0.28395063;stroke:none;stroke-width:0.34070173px;stroke-linecap:butt;stroke-linejoin:miter;stroke-opacity:1" />
    <path
       id="rect958"
       d="M -732.66219,-178.4204 H -95.100195 V 73.02677 H -732.66219 Z"
       style="fill:#624eff;fill-opacity:0.28395063;stroke:none;stroke-width:0.26345116;stroke-linecap:butt;stroke-linejoin:round;stroke-miterlimit:4;stroke-dasharray:none;stroke-opacity:1;paint-order:markers fill stroke" />
    <path
       id="rect958-9"
       d="M -732.66219,-178.4204 H -95.10016 V 73.026769 h -637.56203 z"
       style="fill:#624eff;fill-opacity:0.28395063;stroke:none;stroke-width:0.26345116;stroke-linecap:butt;stroke-linejoin:round;stroke-miterlimit:4;stroke-dasharray:none;stroke-opacity:1;paint-order:markers fill stroke" />
    <path
       id="path839-3-5"
       d="m -92.104025,-229.93959 v -41.66932 c -127.404945,-114.60638 -183.727835,1.74178 -319.045165,6.46426 -135.31732,-4.72249 -191.11105,-121.07064 -318.51642,-6.46426 l -4.3e-4,41.66931 318.78143,2.2e-4 z"
       style="fill:#ffffff;fill-opacity:1;stroke:none;stroke-width:0.34070173px;stroke-linecap:butt;stroke-linejoin:miter;stroke-opacity:1" />
    <path
       id="path839-3-9-3"
       d="m -540.24393,-339.43414 c -31.72391,-0.0241 -65.81853,12.71523 -107.62342,50.32045 v 41.66929 h 318.78109 236.982425 v -89.0726 c -77.326895,-17.62056 -134.528035,50.28269 -237.247015,53.86751 -90.91633,-3.17292 -145.93462,-56.73541 -210.89308,-56.78465 z"
       style="fill:#ffffff;fill-opacity:0.39215686;stroke:none;stroke-width:0.34070173px;stroke-linecap:butt;stroke-linejoin:miter;stroke-opacity:1" />
    <path
       id="path839-3-9-1-8"
       d="m -705.87362,-339.43414 c -7.7624,-0.006 -15.66784,0.75749 -23.79235,2.45722 v 89.53252 h 234.95 318.78107 v -41.66929 c -127.4054,-114.60639 -183.72831,1.74172 -319.04565,6.4642 -90.91633,-3.17292 -145.93461,-56.73541 -210.89307,-56.78465 z"
       style="fill:#ffffff;fill-opacity:0.39215686;stroke:none;stroke-width:0.34070173px;stroke-linecap:butt;stroke-linejoin:miter;stroke-opacity:1" />
  </g>
</svg>
